# xmcd
#
# Track frame offsets: 
#        182
#        24302
#        39912
#        55427
#        70132
#        88107
#        103655
#        118300
#        134780
#        151745
#        166870
#        177832
#
# Disc length: 2574 seconds
#
# Revision: 3
# Processed by: cddbd v1.4PL0 Copyright (c) Steve Scherf et al.
# Submitted via: ExactAudioCopy v0.90b3
#
DISCID=9e0a0c0c
DTITLE=Deana Carter - Did I Shave My Legs For This (UK Version)
DYEAR=1995
DGENRE=Country
TTITLE0=Angel Without A Prayer
TTITLE1=Rita Valentine
TTITLE2=I've Loved Enough To Know
TTITLE3=I Can't Shake You
TTITLE4=Are You Coming Home Today
TTITLE5=Did I Shave My Legs For This
TTITLE6=Turn Those Wheels Around
TTITLE7=Graffiti Bridge
TTITLE8=Before We Ever Heard Goodbye
TTITLE9=We Share A Wall
TTITLE10=Don't Let Go
TTITLE11=Just What You Need
EXTD=YEAR: 1995 ID3G:   2
EXTT0=
EXTT1=
EXTT2=
EXTT3=
EXTT4=
EXTT5=
EXTT6=
EXTT7=
EXTT8=
EXTT9=
EXTT10=
EXTT11=
PLAYORDER=
